<svg width="20" height="20" viewBox="0 0 20 20" fill="none" xmlns="http://www.w3.org/2000/svg">
<path d="M10.0008 7.80005C9.71177 7.80005 9.42556 7.85698 9.15852 7.96759C8.89148 8.0782 8.64884 8.24033 8.44446 8.44471C8.24008 8.64909 8.07796 8.89172 7.96735 9.15876C7.85674 9.4258 7.7998 9.71201 7.7998 10.001C7.7998 10.2901 7.85674 10.5763 7.96735 10.8433C8.07796 11.1104 8.24008 11.353 8.44446 11.5574C8.64884 11.7618 8.89148 11.9239 9.15852 12.0345C9.42556 12.1451 9.71177 12.202 10.0008 12.202C10.5845 12.2019 11.1443 11.9699 11.557 11.557C11.9697 11.1442 12.2014 10.5843 12.2013 10.0005C12.2012 9.41681 11.9692 8.85703 11.5563 8.44435C11.1434 8.03168 10.5835 7.79992 9.9998 7.80005H10.0008ZM10.0008 5.20005C10.2897 5.19992 10.5758 5.14288 10.8426 5.0322C11.1095 4.92152 11.352 4.75936 11.5561 4.55498C11.7603 4.3506 11.9223 4.108 12.0327 3.84103C12.1432 3.57406 12.1999 3.28796 12.1998 2.99905C12.1997 2.71014 12.1426 2.42409 12.032 2.15722C11.9213 1.89036 11.7591 1.6479 11.5547 1.44371C11.3504 1.23951 11.1078 1.07757 10.8408 0.967131C10.5738 0.856692 10.2877 0.799918 9.9988 0.800049C9.41533 0.800314 8.85586 1.03235 8.44346 1.44512C8.03107 1.85789 7.79954 2.41757 7.7998 3.00105C7.80007 3.58453 8.03211 4.144 8.44488 4.55639C8.85764 4.96878 9.41733 5.20031 10.0008 5.20005ZM10.0008 14.8C9.41706 14.8 8.85723 15.0319 8.44446 15.4447C8.0317 15.8575 7.7998 16.4173 7.7998 17.001C7.7998 17.5848 8.0317 18.1446 8.44446 18.5574C8.85723 18.9702 9.41706 19.202 10.0008 19.202C10.5845 19.202 11.1444 18.9702 11.5571 18.5574C11.9699 18.1446 12.2018 17.5848 12.2018 17.001C12.2018 16.4173 11.9699 15.8575 11.5571 15.4447C11.1444 15.0319 10.5845 14.8 10.0008 14.8Z" fill="black"/>
</svg>
