<svg width="20" height="20" viewBox="0 0 20 20" fill="none" xmlns="http://www.w3.org/2000/svg">
<path d="M12.2948 8.33333C13.0998 8.33333 13.7532 8.98667 13.7532 9.79167V13.7492C13.7532 14.7439 13.358 15.698 12.6546 16.4014C11.9512 17.1048 10.9971 17.5 10.0023 17.5C9.00755 17.5 8.05352 17.1048 7.3501 16.4014C6.64668 15.698 6.2515 14.7439 6.2515 13.7492V9.79167C6.2515 8.98667 6.904 8.33333 7.70984 8.33333H12.2948V8.33333ZM5.94234 8.33333C5.64219 8.69454 5.46165 9.14007 5.42567 9.60833L5.41734 9.79167V13.7492C5.41734 14.455 5.57734 15.1233 5.86234 15.72C5.3684 15.8521 4.8507 15.8689 4.34925 15.769C3.8478 15.6691 3.37604 15.4552 2.97046 15.1439C2.56487 14.8326 2.23633 14.4321 2.01022 13.9735C1.78412 13.5149 1.66651 13.0105 1.6665 12.4992V9.79167C1.66652 9.42567 1.80415 9.07307 2.05207 8.80384C2.29999 8.53461 2.64009 8.36845 3.00484 8.33833L3.12484 8.33333H5.94234V8.33333ZM14.0623 8.33333H16.8748C17.6798 8.33333 18.3332 8.98667 18.3332 9.79167V12.5C18.3333 13.011 18.2159 13.5151 17.9902 13.9735C17.7644 14.4319 17.4363 14.8323 17.0311 15.1436C16.626 15.455 16.1547 15.6691 15.6537 15.7693C15.1526 15.8695 14.6352 15.8532 14.1415 15.7217C14.3915 15.1983 14.5448 14.6217 14.579 14.0117L14.5865 13.7492V9.79167C14.5865 9.2375 14.3898 8.72917 14.0615 8.33333H14.0623ZM9.99984 2.5C10.6629 2.5 11.2988 2.76339 11.7676 3.23223C12.2364 3.70107 12.4998 4.33696 12.4998 5C12.4998 5.66304 12.2364 6.29893 11.7676 6.76777C11.2988 7.23661 10.6629 7.5 9.99984 7.5C9.3368 7.5 8.70091 7.23661 8.23207 6.76777C7.76323 6.29893 7.49984 5.66304 7.49984 5C7.49984 4.33696 7.76323 3.70107 8.23207 3.23223C8.70091 2.76339 9.3368 2.5 9.99984 2.5V2.5ZM15.4165 3.33333C15.969 3.33333 16.4989 3.55283 16.8896 3.94353C17.2803 4.33423 17.4998 4.86413 17.4998 5.41667C17.4998 5.9692 17.2803 6.4991 16.8896 6.88981C16.4989 7.28051 15.969 7.5 15.4165 7.5C14.864 7.5 14.3341 7.28051 13.9434 6.88981C13.5527 6.4991 13.3332 5.9692 13.3332 5.41667C13.3332 4.86413 13.5527 4.33423 13.9434 3.94353C14.3341 3.55283 14.864 3.33333 15.4165 3.33333ZM4.58317 3.33333C5.1357 3.33333 5.66561 3.55283 6.05631 3.94353C6.44701 4.33423 6.6665 4.86413 6.6665 5.41667C6.6665 5.9692 6.44701 6.4991 6.05631 6.88981C5.66561 7.28051 5.1357 7.5 4.58317 7.5C4.03064 7.5 3.50073 7.28051 3.11003 6.88981C2.71933 6.4991 2.49984 5.9692 2.49984 5.41667C2.49984 4.86413 2.71933 4.33423 3.11003 3.94353C3.50073 3.55283 4.03064 3.33333 4.58317 3.33333V3.33333Z" fill="#8A8FA9"/>
</svg>
