<svg width="20" height="20" viewBox="0 0 20 20" fill="none" xmlns="http://www.w3.org/2000/svg">
<path d="M12.2953 8.33333C13.1003 8.33333 13.7537 8.98667 13.7537 9.79167V13.7492C13.7537 14.7439 13.3585 15.698 12.6551 16.4014C11.9516 17.1048 10.9976 17.5 10.0028 17.5C9.00804 17.5 8.054 17.1048 7.35059 16.4014C6.64717 15.698 6.25199 14.7439 6.25199 13.7492V9.79167C6.25199 8.98667 6.90449 8.33333 7.71033 8.33333H12.2953ZM5.94283 8.33333C5.64268 8.69454 5.46214 9.14007 5.42616 9.60833L5.41783 9.79167V13.7492C5.41783 14.455 5.57783 15.1233 5.86283 15.72C5.36889 15.8521 4.85119 15.8689 4.34974 15.769C3.84829 15.6691 3.37653 15.4552 2.97095 15.1439C2.56536 14.8326 2.23682 14.4321 2.01071 13.9735C1.78461 13.5149 1.667 13.0105 1.66699 12.4992V9.79167C1.66701 9.42567 1.80463 9.07307 2.05256 8.80384C2.30048 8.53461 2.64057 8.36845 3.00533 8.33833L3.12533 8.33333H5.94283ZM14.0628 8.33333H16.8753C17.6803 8.33333 18.3337 8.98667 18.3337 9.79167V12.5C18.3338 13.011 18.2164 13.5151 17.9906 13.9735C17.7649 14.4319 17.4368 14.8323 17.0316 15.1436C16.6265 15.455 16.1552 15.6691 15.6542 15.7693C15.1531 15.8695 14.6357 15.8532 14.142 15.7217C14.392 15.1983 14.5453 14.6217 14.5795 14.0117L14.587 13.7492V9.79167C14.587 9.2375 14.3903 8.72917 14.062 8.33333H14.0628ZM10.0003 2.5C10.6634 2.5 11.2993 2.76339 11.7681 3.23223C12.2369 3.70107 12.5003 4.33696 12.5003 5C12.5003 5.66304 12.2369 6.29893 11.7681 6.76777C11.2993 7.23661 10.6634 7.5 10.0003 7.5C9.33728 7.5 8.7014 7.23661 8.23256 6.76777C7.76372 6.29893 7.50033 5.66304 7.50033 5C7.50033 4.33696 7.76372 3.70107 8.23256 3.23223C8.7014 2.76339 9.33728 2.5 10.0003 2.5ZM15.417 3.33333C15.9695 3.33333 16.4994 3.55283 16.8901 3.94353C17.2808 4.33423 17.5003 4.86413 17.5003 5.41667C17.5003 5.9692 17.2808 6.4991 16.8901 6.88981C16.4994 7.28051 15.9695 7.5 15.417 7.5C14.8645 7.5 14.3346 7.28051 13.9439 6.88981C13.5532 6.4991 13.3337 5.9692 13.3337 5.41667C13.3337 4.86413 13.5532 4.33423 13.9439 3.94353C14.3346 3.55283 14.8645 3.33333 15.417 3.33333ZM4.58366 3.33333C5.13619 3.33333 5.6661 3.55283 6.0568 3.94353C6.4475 4.33423 6.66699 4.86413 6.66699 5.41667C6.66699 5.9692 6.4475 6.4991 6.0568 6.88981C5.6661 7.28051 5.13619 7.5 4.58366 7.5C4.03112 7.5 3.50122 7.28051 3.11052 6.88981C2.71982 6.4991 2.50033 5.9692 2.50033 5.41667C2.50033 4.86413 2.71982 4.33423 3.11052 3.94353C3.50122 3.55283 4.03112 3.33333 4.58366 3.33333Z" fill="#6065D7"/>
</svg>
