<svg width="20" height="20" viewBox="0 0 20 20" fill="none" xmlns="http://www.w3.org/2000/svg">
<path fill-rule="evenodd" clip-rule="evenodd" d="M10.0003 17.5C14.1424 17.5 17.5003 14.142 17.5003 9.99996C17.5003 5.85788 14.1424 2.49996 10.0003 2.49996C5.85824 2.49996 2.50033 5.85788 2.50033 9.99996C2.50033 14.142 5.85824 17.5 10.0003 17.5ZM10.0003 18.3333C14.6028 18.3333 18.3337 14.6025 18.3337 9.99996C18.3337 5.39746 14.6028 1.66663 10.0003 1.66663C5.39783 1.66663 1.66699 5.39746 1.66699 9.99996C1.66699 14.6025 5.39783 18.3333 10.0003 18.3333Z" fill="#8A8FA9"/>
<path d="M5 14.8457C5 14.4153 5.32167 14.0516 5.75 14.0041C8.96458 13.6482 11.05 13.6803 14.2575 14.012C14.4177 14.0288 14.5695 14.0919 14.6944 14.1936C14.8193 14.2953 14.9119 14.4311 14.9608 14.5845C15.0098 14.738 15.013 14.9023 14.9701 15.0576C14.9272 15.2128 14.84 15.3522 14.7192 15.4587C10.9338 18.7582 8.77042 18.7128 5.26667 15.462C5.09583 15.3037 5 15.0787 5 14.8462V14.8457Z" fill="#8A8FA9"/>
<path fill-rule="evenodd" clip-rule="evenodd" d="M14.2152 14.4262C11.0332 14.097 8.97774 14.0662 5.79607 14.4182C5.69134 14.4304 5.59479 14.4809 5.5249 14.5598C5.45502 14.6388 5.41671 14.7407 5.41732 14.8462C5.41732 14.9653 5.4669 15.0782 5.55065 15.1566C7.28732 16.7674 8.60315 17.4953 9.8894 17.4999C11.1802 17.5045 12.5669 16.7824 14.4461 15.1449C14.5058 15.0918 14.5487 15.0224 14.5698 14.9453C14.5908 14.8682 14.589 14.7867 14.5645 14.7106C14.5401 14.6345 14.4941 14.5671 14.432 14.5167C14.37 14.4663 14.2947 14.435 14.2152 14.4266V14.4262ZM5.70482 13.5899C8.95315 13.2303 11.069 13.2628 14.3015 13.5974C14.5424 13.6226 14.7708 13.7174 14.9587 13.8704C15.1466 14.0233 15.2858 14.2278 15.3593 14.4586C15.4328 14.6895 15.4374 14.9367 15.3725 15.1702C15.3076 15.4036 15.1761 15.613 14.994 15.7728C13.0877 17.4345 11.5002 18.3395 9.8869 18.3332C8.26899 18.3274 6.75149 17.407 4.9844 15.7674C4.85788 15.6496 4.75703 15.5069 4.68813 15.3483C4.61923 15.1897 4.58378 15.0186 4.58399 14.8457C4.58338 14.5351 4.6974 14.2351 4.90422 14.0033C5.11104 13.7715 5.39611 13.6242 5.70482 13.5895V13.5899Z" fill="#8A8FA9"/>
<path d="M13.3337 8.33333C13.3337 9.21739 12.9825 10.0652 12.3573 10.6904C11.7322 11.3155 10.8844 11.6667 10.0003 11.6667C9.11627 11.6667 8.26842 11.3155 7.6433 10.6904C7.01818 10.0652 6.66699 9.21739 6.66699 8.33333C6.66699 7.44928 7.01818 6.60143 7.6433 5.97631C8.26842 5.35119 9.11627 5 10.0003 5C10.8844 5 11.7322 5.35119 12.3573 5.97631C12.9825 6.60143 13.3337 7.44928 13.3337 8.33333Z" fill="#8A8FA9"/>
<path fill-rule="evenodd" clip-rule="evenodd" d="M10.0003 10.8333C10.6634 10.8333 11.2993 10.5699 11.7681 10.1011C12.2369 9.63226 12.5003 8.99637 12.5003 8.33333C12.5003 7.67029 12.2369 7.03441 11.7681 6.56557C11.2993 6.09673 10.6634 5.83333 10.0003 5.83333C9.33728 5.83333 8.7014 6.09673 8.23256 6.56557C7.76372 7.03441 7.50033 7.67029 7.50033 8.33333C7.50033 8.99637 7.76372 9.63226 8.23256 10.1011C8.7014 10.5699 9.33728 10.8333 10.0003 10.8333ZM10.0003 11.6667C10.8844 11.6667 11.7322 11.3155 12.3573 10.6904C12.9825 10.0652 13.3337 9.21739 13.3337 8.33333C13.3337 7.44928 12.9825 6.60143 12.3573 5.97631C11.7322 5.35119 10.8844 5 10.0003 5C9.11627 5 8.26842 5.35119 7.6433 5.97631C7.01818 6.60143 6.66699 7.44928 6.66699 8.33333C6.66699 9.21739 7.01818 10.0652 7.6433 10.6904C8.26842 11.3155 9.11627 11.6667 10.0003 11.6667Z" fill="#8A8FA9"/>
</svg>
