<svg width="20" height="20" viewBox="0 0 20 20" fill="none" xmlns="http://www.w3.org/2000/svg">
<path fill-rule="evenodd" clip-rule="evenodd" d="M9.99984 17.5C14.1419 17.5 17.4998 14.142 17.4998 9.99996C17.4998 5.85788 14.1419 2.49996 9.99984 2.49996C5.85775 2.49996 2.49984 5.85788 2.49984 9.99996C2.49984 14.142 5.85775 17.5 9.99984 17.5ZM9.99984 18.3333C14.6023 18.3333 18.3332 14.6025 18.3332 9.99996C18.3332 5.39746 14.6023 1.66663 9.99984 1.66663C5.39734 1.66663 1.6665 5.39746 1.6665 9.99996C1.6665 14.6025 5.39734 18.3333 9.99984 18.3333Z" fill="#8A8FA9"/>
<path d="M5 14.8457C5 14.4153 5.32167 14.0516 5.75 14.0041C8.96458 13.6482 11.05 13.6803 14.2575 14.012C14.4177 14.0288 14.5695 14.0919 14.6944 14.1936C14.8193 14.2953 14.9119 14.4311 14.9608 14.5845C15.0098 14.738 15.013 14.9023 14.9701 15.0576C14.9272 15.2128 14.84 15.3522 14.7192 15.4587C10.9337 18.7582 8.77042 18.7128 5.26667 15.462C5.09583 15.3037 5 15.0787 5 14.8462V14.8457Z" fill="#8A8FA9"/>
<path fill-rule="evenodd" clip-rule="evenodd" d="M14.2143 14.4262C11.0322 14.097 8.97676 14.0662 5.79509 14.4182C5.69036 14.4304 5.59381 14.4809 5.52393 14.5598C5.45404 14.6388 5.41574 14.7407 5.41634 14.8462C5.41634 14.9653 5.46593 15.0782 5.54968 15.1566C7.28634 16.7674 8.60218 17.4953 9.88843 17.4999C11.1793 17.5045 12.5659 16.7824 14.4451 15.1449C14.5048 15.0918 14.5478 15.0224 14.5688 14.9453C14.5898 14.8682 14.588 14.7867 14.5636 14.7106C14.5391 14.6345 14.4931 14.5671 14.4311 14.5167C14.3691 14.4663 14.2937 14.435 14.2143 14.4266V14.4262ZM5.70384 13.5899C8.95218 13.2303 11.068 13.2628 14.3005 13.5974C14.5415 13.6226 14.7699 13.7174 14.9577 13.8704C15.1456 14.0233 15.2848 14.2278 15.3583 14.4586C15.4318 14.6895 15.4364 14.9367 15.3715 15.1702C15.3066 15.4036 15.1751 15.613 14.993 15.7728C13.0868 17.4345 11.4993 18.3395 9.88593 18.3332C8.26801 18.3274 6.75051 17.407 4.98343 15.7674C4.85691 15.6496 4.75605 15.5069 4.68715 15.3483C4.61826 15.1897 4.5828 15.0186 4.58301 14.8457C4.5824 14.5351 4.69643 14.2351 4.90325 14.0033C5.11006 13.7715 5.39513 13.6242 5.70384 13.5895V13.5899Z" fill="#8A8FA9"/>
<path d="M13.3332 8.33333C13.3332 9.21739 12.982 10.0652 12.3569 10.6904C11.7317 11.3155 10.8839 11.6667 9.99984 11.6667C9.11578 11.6667 8.26794 11.3155 7.64281 10.6904C7.01769 10.0652 6.6665 9.21739 6.6665 8.33333C6.6665 7.44928 7.01769 6.60143 7.64281 5.97631C8.26794 5.35119 9.11578 5 9.99984 5C10.8839 5 11.7317 5.35119 12.3569 5.97631C12.982 6.60143 13.3332 7.44928 13.3332 8.33333V8.33333Z" fill="#8A8FA9"/>
<path fill-rule="evenodd" clip-rule="evenodd" d="M9.99984 10.8333C10.6629 10.8333 11.2988 10.5699 11.7676 10.1011C12.2364 9.63226 12.4998 8.99637 12.4998 8.33333C12.4998 7.67029 12.2364 7.03441 11.7676 6.56557C11.2988 6.09673 10.6629 5.83333 9.99984 5.83333C9.3368 5.83333 8.70091 6.09673 8.23207 6.56557C7.76323 7.03441 7.49984 7.67029 7.49984 8.33333C7.49984 8.99637 7.76323 9.63226 8.23207 10.1011C8.70091 10.5699 9.3368 10.8333 9.99984 10.8333V10.8333ZM9.99984 11.6667C10.8839 11.6667 11.7317 11.3155 12.3569 10.6904C12.982 10.0652 13.3332 9.21739 13.3332 8.33333C13.3332 7.44928 12.982 6.60143 12.3569 5.97631C11.7317 5.35119 10.8839 5 9.99984 5C9.11578 5 8.26794 5.35119 7.64281 5.97631C7.01769 6.60143 6.6665 7.44928 6.6665 8.33333C6.6665 9.21739 7.01769 10.0652 7.64281 10.6904C8.26794 11.3155 9.11578 11.6667 9.99984 11.6667V11.6667Z" fill="#8A8FA9"/>
</svg>
