<svg width="24" height="24" viewBox="0 0 24 24" fill="none" xmlns="http://www.w3.org/2000/svg">
<g clip-path="url(#clip0_111_188)">
<path d="M10.5 24.6562C11.8062 24.6562 12.875 23.5875 12.875 22.2812H8.125C8.125 22.9111 8.37522 23.5152 8.82062 23.9606C9.26602 24.406 9.87011 24.6562 10.5 24.6562ZM17.625 17.5312V11.5938C17.625 7.94812 15.6775 4.89625 12.2812 4.08875V3.28125C12.2812 2.29563 11.4856 1.5 10.5 1.5C9.51437 1.5 8.71875 2.29563 8.71875 3.28125V4.08875C5.31063 4.89625 3.375 7.93625 3.375 11.5938V17.5312L1 19.9062V21.0938H20V19.9062L17.625 17.5312Z" fill="#1E1E1E"/>
</g>
<defs>
<clipPath id="clip0_111_188">
<rect width="24" height="24" fill="white"/>
</clipPath>
</defs>
</svg>
