<svg width="20" height="20" viewBox="0 0 20 20" fill="none" xmlns="http://www.w3.org/2000/svg">
<path d="M6.24984 2.33325C3.71859 2.33325 1.6665 4.38534 1.6665 6.91659C1.6665 11.4999 7.08317 15.6666 9.99984 16.6358C12.9165 15.6666 18.3332 11.4999 18.3332 6.91659C18.3332 4.38534 16.2811 2.33325 13.7498 2.33325C12.1998 2.33325 10.829 3.10284 9.99984 4.28075C9.5772 3.67876 9.01574 3.18746 8.36298 2.84846C7.71021 2.50945 6.98538 2.33273 6.24984 2.33325Z" stroke="black" stroke-width="1.66667" stroke-linecap="round" stroke-linejoin="round"/>
<path d="M6.24984 2.33325C3.71859 2.33325 1.6665 4.38534 1.6665 6.91659C1.6665 11.4999 7.08317 15.6666 9.99984 16.6358C12.9165 15.6666 18.3332 11.4999 18.3332 6.91659C18.3332 4.38534 16.2811 2.33325 13.7498 2.33325C12.1998 2.33325 10.829 3.10284 9.99984 4.28075C9.5772 3.67876 9.01574 3.18746 8.36298 2.84846C7.71021 2.50945 6.98538 2.33273 6.24984 2.33325Z" stroke="black" stroke-width="1.66667" stroke-linecap="round" stroke-linejoin="round"/>
</svg>
