<svg width="18" height="20" viewBox="0 0 18 20" fill="none" xmlns="http://www.w3.org/2000/svg">
<path d="M11.625 9.16675C12.2463 9.16675 12.75 8.6071 12.75 7.91675C12.75 7.22639 12.2463 6.66675 11.625 6.66675C11.0037 6.66675 10.5 7.22639 10.5 7.91675C10.5 8.6071 11.0037 9.16675 11.625 9.16675Z" fill="black"/>
<path d="M6.375 9.16675C6.99632 9.16675 7.5 8.6071 7.5 7.91675C7.5 7.22639 6.99632 6.66675 6.375 6.66675C5.75368 6.66675 5.25 7.22639 5.25 7.91675C5.25 8.6071 5.75368 9.16675 6.375 9.16675Z" fill="black"/>
<path d="M9 15.0001C10.71 15.0001 12.165 13.6167 12.75 11.6667H5.25C5.835 13.6167 7.29 15.0001 9 15.0001Z" fill="black"/>
<path d="M8.9925 1.66675C4.8525 1.66675 1.5 5.40008 1.5 10.0001C1.5 14.6001 4.8525 18.3334 8.9925 18.3334C13.14 18.3334 16.5 14.6001 16.5 10.0001C16.5 5.40008 13.14 1.66675 8.9925 1.66675ZM9 16.6667C5.685 16.6667 3 13.6834 3 10.0001C3 6.31675 5.685 3.33341 9 3.33341C12.315 3.33341 15 6.31675 15 10.0001C15 13.6834 12.315 16.6667 9 16.6667Z" fill="black"/>
</svg>
