<svg width="20" height="20" viewBox="0 0 20 20" fill="none" xmlns="http://www.w3.org/2000/svg">
<path d="M4.71366 17.0659C4.59401 17.1699 4.44716 17.2377 4.29035 17.2612C4.13355 17.2847 3.97329 17.2629 3.8284 17.1985C3.68351 17.1341 3.55999 17.0297 3.47236 16.8976C3.38473 16.7655 3.33661 16.6111 3.33366 16.4525V14.5834C2.89163 14.5834 2.46771 14.4078 2.15515 14.0952C1.84259 13.7827 1.66699 13.3587 1.66699 12.9167V7.08337C1.66699 6.64135 1.84259 6.21742 2.15515 5.90486C2.46771 5.5923 2.89163 5.41671 3.33366 5.41671H12.5003C12.9424 5.41671 13.3663 5.5923 13.6788 5.90486C13.9914 6.21742 14.167 6.64135 14.167 7.08337V12.9167C14.167 13.3587 13.9914 13.7827 13.6788 14.0952C13.3663 14.4078 12.9424 14.5834 12.5003 14.5834H8.33616L4.71366 17.0659ZM15.0003 10.4309C14.9977 10.5334 14.9977 10.6359 15.0003 10.7384V10.43C15.0045 10.3409 15.0053 9.22421 15.0037 7.08087C15.003 6.41827 14.7393 5.78302 14.2705 5.31472C13.8018 4.84642 13.1663 4.58337 12.5037 4.58337H5.83366V3.75004C5.83366 3.30801 6.00925 2.88409 6.32181 2.57153C6.63437 2.25897 7.0583 2.08337 7.50033 2.08337H16.667C17.109 2.08337 17.5329 2.25897 17.8455 2.57153C18.1581 2.88409 18.3337 3.30801 18.3337 3.75004V9.58337C18.3337 10.0254 18.1581 10.4493 17.8455 10.7619C17.5329 11.0744 17.109 11.25 16.667 11.25V13.1192C16.664 13.2777 16.6159 13.4321 16.5283 13.5643C16.4407 13.6964 16.3171 13.8008 16.1723 13.8652C16.0274 13.9296 15.8671 13.9513 15.7103 13.9278C15.5535 13.9043 15.4066 13.8366 15.287 13.7325L15.0003 13.5359V10.4309Z" fill="#6065D7"/>
</svg>
