<svg width="24" height="24" viewBox="0 0 24 24" fill="none" xmlns="http://www.w3.org/2000/svg">
<g clip-path="url(#clip0_111_190)">
<path d="M6.3872 24.0748C6.2149 24.2246 6.00344 24.3222 5.77764 24.356C5.55184 24.3899 5.32107 24.3586 5.11243 24.2658C4.90378 24.1731 4.72592 24.0228 4.59973 23.8325C4.47354 23.6422 4.40425 23.4199 4.4 23.1916V20.5C3.76348 20.5 3.15303 20.2471 2.70294 19.7971C2.25286 19.347 2 18.7365 2 18.1V9.7C2 9.06348 2.25286 8.45303 2.70294 8.00294C3.15303 7.55286 3.76348 7.3 4.4 7.3H17.6C18.2365 7.3 18.847 7.55286 19.2971 8.00294C19.7471 8.45303 20 9.06348 20 9.7V18.1C20 18.7365 19.7471 19.347 19.2971 19.7971C18.847 20.2471 18.2365 20.5 17.6 20.5H11.6036L6.3872 24.0748ZM21.2 14.5204C21.1962 14.668 21.1962 14.8156 21.2 14.9632V14.5192C21.206 14.3908 21.2072 12.7828 21.2048 9.6964C21.2038 8.74225 20.8241 7.8275 20.1491 7.15314C19.4741 6.47879 18.559 6.1 17.6048 6.1H8V4.9C8 4.26348 8.25286 3.65303 8.70294 3.20294C9.15303 2.75286 9.76348 2.5 10.4 2.5H23.6C24.2365 2.5 24.847 2.75286 25.2971 3.20294C25.7471 3.65303 26 4.26348 26 4.9V13.3C26 13.9365 25.7471 14.547 25.2971 14.9971C24.847 15.4471 24.2365 15.7 23.6 15.7V18.3916C23.5958 18.6199 23.5265 18.8422 23.4003 19.0325C23.2741 19.2228 23.0962 19.3731 22.8876 19.4658C22.6789 19.5586 22.4482 19.5899 22.2224 19.556C21.9966 19.5222 21.7851 19.4246 21.6128 19.2748L21.2 18.9916V14.5204Z" fill="#1E1E1E"/>
</g>
<defs>
<clipPath id="clip0_111_190">
<rect width="24" height="24" fill="white"/>
</clipPath>
</defs>
</svg>
