<svg width="20" height="20" viewBox="0 0 20 20" fill="none" xmlns="http://www.w3.org/2000/svg">
<path d="M4.71317 17.0659C4.59352 17.1699 4.44667 17.2377 4.28987 17.2612C4.13306 17.2847 3.9728 17.2629 3.82791 17.1985C3.68302 17.1341 3.55951 17.0297 3.47187 16.8976C3.38424 16.7655 3.33612 16.6111 3.33317 16.4525V14.5834C2.89114 14.5834 2.46722 14.4078 2.15466 14.0952C1.8421 13.7827 1.6665 13.3587 1.6665 12.9167V7.08337C1.6665 6.64135 1.8421 6.21742 2.15466 5.90486C2.46722 5.5923 2.89114 5.41671 3.33317 5.41671H12.4998C12.9419 5.41671 13.3658 5.5923 13.6783 5.90486C13.9909 6.21742 14.1665 6.64135 14.1665 7.08337V12.9167C14.1665 13.3587 13.9909 13.7827 13.6783 14.0952C13.3658 14.4078 12.9419 14.5834 12.4998 14.5834H8.33567L4.71317 17.0659V17.0659ZM14.9998 10.4309C14.9972 10.5334 14.9972 10.6359 14.9998 10.7384V10.43C15.004 10.3409 15.0048 9.22421 15.0032 7.08087C15.0025 6.41827 14.7388 5.78302 14.2701 5.31472C13.8013 4.84642 13.1658 4.58337 12.5032 4.58337H5.83317V3.75004C5.83317 3.30801 6.00877 2.88409 6.32133 2.57153C6.63389 2.25897 7.05781 2.08337 7.49984 2.08337H16.6665C17.1085 2.08337 17.5325 2.25897 17.845 2.57153C18.1576 2.88409 18.3332 3.30801 18.3332 3.75004V9.58337C18.3332 10.0254 18.1576 10.4493 17.845 10.7619C17.5325 11.0744 17.1085 11.25 16.6665 11.25V13.1192C16.6636 13.2777 16.6154 13.4321 16.5278 13.5643C16.4402 13.6964 16.3167 13.8008 16.1718 13.8652C16.0269 13.9296 15.8666 13.9513 15.7098 13.9278C15.553 13.9043 15.4062 13.8366 15.2865 13.7325L14.9998 13.5359V10.4309Z" fill="#8A8FA9"/>
</svg>
