<svg width="20" height="20" viewBox="0 0 20 20" fill="none" xmlns="http://www.w3.org/2000/svg">
<path d="M7.70833 18.3333L7.375 15.6666C7.19444 15.5972 7.02444 15.5138 6.865 15.4166C6.705 15.3194 6.54861 15.2152 6.39583 15.1041L3.91667 16.1458L1.625 12.1875L3.77083 10.5625C3.75694 10.4652 3.75 10.3713 3.75 10.2808V9.71829C3.75 9.62829 3.75694 9.53468 3.77083 9.43746L1.625 7.81246L3.91667 3.85413L6.39583 4.89579C6.54861 4.78468 6.70833 4.68051 6.875 4.58329C7.04167 4.48607 7.20833 4.40274 7.375 4.33329L7.70833 1.66663H12.2917L12.625 4.33329C12.8056 4.40274 12.9758 4.48607 13.1358 4.58329C13.2953 4.68051 13.4514 4.78468 13.6042 4.89579L16.0833 3.85413L18.375 7.81246L16.2292 9.43746C16.2431 9.53468 16.25 9.62829 16.25 9.71829V10.2808C16.25 10.3713 16.2361 10.4652 16.2083 10.5625L18.3542 12.1875L16.0625 16.1458L13.6042 15.1041C13.4514 15.2152 13.2917 15.3194 13.125 15.4166C12.9583 15.5138 12.7917 15.5972 12.625 15.6666L12.2917 18.3333H7.70833ZM10.0417 12.9166C10.8472 12.9166 11.5347 12.6319 12.1042 12.0625C12.6736 11.493 12.9583 10.8055 12.9583 9.99996C12.9583 9.1944 12.6736 8.5069 12.1042 7.93746C11.5347 7.36801 10.8472 7.08329 10.0417 7.08329C9.22222 7.08329 8.53111 7.36801 7.96833 7.93746C7.40611 8.5069 7.125 9.1944 7.125 9.99996C7.125 10.8055 7.40611 11.493 7.96833 12.0625C8.53111 12.6319 9.22222 12.9166 10.0417 12.9166Z" fill="#8A8FA9"/>
</svg>
