<svg width="40" height="40" viewBox="0 0 40 40" fill="none" xmlns="http://www.w3.org/2000/svg">
<path d="M18.3335 28.3334H11.6668C9.36127 28.3334 7.39627 27.5206 5.77183 25.8951C4.14627 24.2706 3.3335 22.3056 3.3335 20.0001C3.3335 17.6945 4.14627 15.729 5.77183 14.1034C7.39627 12.479 9.36127 11.6667 11.6668 11.6667H18.3335V15.0001H11.6668C10.2779 15.0001 9.09738 15.4862 8.12516 16.4584C7.15294 17.4306 6.66683 18.6112 6.66683 20.0001C6.66683 21.389 7.15294 22.5695 8.12516 23.5417C9.09738 24.514 10.2779 25.0001 11.6668 25.0001H18.3335V28.3334ZM13.3335 21.6667V18.3334H26.6668V21.6667H13.3335ZM21.6668 28.3334V25.0001H28.3335C29.7224 25.0001 30.9029 24.514 31.8752 23.5417C32.8474 22.5695 33.3335 21.389 33.3335 20.0001C33.3335 18.6112 32.8474 17.4306 31.8752 16.4584C30.9029 15.4862 29.7224 15.0001 28.3335 15.0001H21.6668V11.6667H28.3335C30.6391 11.6667 32.6046 12.479 34.2302 14.1034C35.8546 15.729 36.6668 17.6945 36.6668 20.0001C36.6668 22.3056 35.8546 24.2706 34.2302 25.8951C32.6046 27.5206 30.6391 28.3334 28.3335 28.3334H21.6668Z" fill="black"/>
</svg>
