<svg width="413" height="45" viewBox="0 0 413 45" fill="none" xmlns="http://www.w3.org/2000/svg">
<path d="M0.856265 30.8077C0.481837 29.5718 0.223806 28.2854 0.0949265 26.9611L1.09022 26.8642C1.03056 26.2512 1 25.6293 1 25V23.75H0V21.25H1V20C1 19.3707 1.03056 18.7488 1.09022 18.1358L0.0949265 18.0389C0.223806 16.7146 0.481837 15.4282 0.856264 14.1923L1.8133 14.4823C2.17719 13.2812 2.6569 12.1303 3.23954 11.0425L2.35802 10.5704C2.9789 9.41121 3.71069 8.32033 4.5392 7.31194L5.31185 7.94677C6.10209 6.98496 6.98496 6.10209 7.94676 5.31185L7.31194 4.5392C8.32033 3.71069 9.41121 2.9789 10.5704 2.35802L11.0425 3.23954C12.1303 2.6569 13.2812 2.1772 14.4823 1.8133L14.1923 0.856265C15.4282 0.481838 16.7146 0.223806 18.0389 0.0949265L18.1358 1.09022C18.7488 1.03056 19.3707 1 20 1H21.9844V0H25.9525V1H29.9206V0H33.8886V1H37.8567V0H41.8248V1H45.7929V0H49.761V1H53.729V0H57.6971V1H61.6652V0H65.6333V1H69.6014V0H73.5694V1H77.5375V0H81.5056V1H85.4737V0H89.4417V1H93.4098V0H97.3779V1H101.346V0H105.314V1H109.282V0H113.25V1H117.218V0H121.186V1H125.154V0H129.123V1H133.091V0H137.059V1H141.027V0H144.995V1H148.963V0H152.931V1H156.899V0H160.867V1H164.835V0H168.803V1H172.771V0H176.739V1H180.708V0H184.676V1H188.644V0H192.612V1H196.58V0H200.548V1H204.516V0H208.484V1H212.452V0H216.42V1H220.388V0H224.356V1H228.325V0H232.293V1H236.261V0H240.229V1H244.197V0H248.165V1H252.133V0H256.101V1H260.069V0H264.037V1H268.005V0H271.973V1H275.941V0H279.91V1H283.878V0H287.846V1H291.814V0H295.782V1H299.75V0H303.718V1H307.686V0H311.654V1H315.622V0H319.59V1H323.559V0H327.527V1H331.495V0H335.463V1H339.431V0H343.399V1H347.367V0H351.335V1H355.303V0H359.271V1H363.239V0H367.207V1H371.176V0H375.144V1H379.112V0H383.08V1H387.048V0H391.016V1H393C393.629 1 394.251 1.03056 394.864 1.09022L394.961 0.0949257C396.285 0.223805 397.572 0.481837 398.808 0.856266L398.518 1.81331C399.719 2.1772 400.87 2.6569 401.957 3.23954L402.43 2.35802C403.589 2.9789 404.68 3.71069 405.688 4.5392L405.053 5.31185C406.015 6.10209 406.898 6.98496 407.688 7.94677L408.461 7.31194C409.289 8.32033 410.021 9.41121 410.642 10.5704L409.76 11.0425C410.343 12.1303 410.823 13.2812 411.187 14.4823L412.144 14.1923C412.518 15.4282 412.776 16.7146 412.905 18.0389L411.91 18.1358C411.969 18.7488 412 19.3707 412 20V21.25H413V23.75H412V25C412 25.6293 411.969 26.2512 411.91 26.8642L412.905 26.9611C412.776 28.2854 412.518 29.5718 412.144 30.8077L411.187 30.5177C410.823 31.7188 410.343 32.8697 409.76 33.9575L410.642 34.4296C410.021 35.5888 409.289 36.6797 408.461 37.6881L407.688 37.0532C406.898 38.015 406.015 38.8979 405.053 39.6881L405.688 40.4608C404.68 41.2893 403.589 42.0211 402.43 42.642L401.957 41.7605C400.87 42.3431 399.719 42.8228 398.518 43.1867L398.808 44.1437C397.572 44.5182 396.285 44.7762 394.961 44.9051L394.864 43.9098C394.251 43.9694 393.629 44 393 44H390.973V45H386.919V44H382.864V45H378.81V44H374.756V45H370.701V44H366.647V45H362.592V44H358.538V45H354.484V44H350.429V45H346.375V44H342.321V45H338.266V44H334.212V45H330.158V44H326.103V45H322.049V44H317.995V45H313.94V44H309.886V45H305.832V44H301.777V45H297.723V44H293.668V45H289.614V44H285.56V45H281.505V44H277.451V45H273.397V44H269.342V45H265.288V44H261.234V45H257.179V44H253.125V45H249.071V44H245.016V45H240.962V44H236.908V45H232.853V44H228.799V45H224.745V44H220.69V45H216.636V44H212.582V45H208.527V44H206.5H204.473V45H200.419V44H196.364V45H192.31V44H188.256V45H184.201V44H180.147V45H176.092V44H172.038V45H167.984V44H163.929V45H159.875V44H155.821V45H151.766V44H147.712V45H143.658V44H139.603V45H135.549V44H131.495V45H127.44V44H123.386V45H119.332V44H115.277V45H111.223V44H107.169V45H103.114V44H99.0598V45H95.0054V44H90.9511V45H86.8967V44H82.8424V45H78.788V44H74.7337V45H70.6794V44H66.625V45H62.5707V44H58.5163V45H54.462V44H50.4076V45H46.3533V44H42.2989V45H38.2446V44H34.1902V45H30.1359V44H26.0815V45H22.0272V44H20C19.3707 44 18.7488 43.9694 18.1358 43.9098L18.0389 44.9051C16.7146 44.7762 15.4282 44.5182 14.1923 44.1437L14.4823 43.1867C13.2812 42.8228 12.1303 42.3431 11.0425 41.7605L10.5704 42.642C9.41121 42.0211 8.32033 41.2893 7.31194 40.4608L7.94677 39.6881C6.98496 38.8979 6.10209 38.015 5.31185 37.0532L4.5392 37.6881C3.71069 36.6797 2.9789 35.5888 2.35802 34.4296L3.23954 33.9575C2.6569 32.8697 2.17719 31.7188 1.8133 30.5177L0.856265 30.8077Z" fill="#C7C9DD" fill-opacity="0.25" stroke="black" stroke-width="2" stroke-dasharray="4 4"/>
</svg>
