<svg width="20" height="20" viewBox="0 0 20 20" fill="none" xmlns="http://www.w3.org/2000/svg">
<path d="M17.1749 15.9917C17.6972 15.2917 18.0556 14.4833 18.2236 13.6262C18.3917 12.7692 18.3652 11.8853 18.1461 11.0399C17.9269 10.1944 17.5207 9.40897 16.9574 8.7415C16.3941 8.07402 15.6882 7.54155 14.8916 7.18338C14.7181 6.18513 14.3193 5.23956 13.7256 4.41852C13.1319 3.59748 12.3589 2.92257 11.4652 2.44507C10.5716 1.96757 9.58084 1.70005 8.56831 1.66283C7.55578 1.6256 6.54808 1.81966 5.62179 2.23026C4.6955 2.64086 3.87499 3.25719 3.22259 4.03242C2.5702 4.80765 2.10309 5.72139 1.85676 6.70421C1.61043 7.68702 1.59136 8.71306 1.801 9.70435C2.01063 10.6956 2.44346 11.6261 3.0666 12.425L1.90826 13.575C1.79263 13.6922 1.7143 13.841 1.68316 14.0027C1.65201 14.1644 1.66945 14.3316 1.73326 14.4834C1.79578 14.6356 1.90195 14.7658 2.03838 14.8578C2.17481 14.9497 2.33541 14.9992 2.49993 15H7.2416C7.7138 15.9955 8.45829 16.837 9.38889 17.4269C10.3195 18.0168 11.3981 18.3311 12.4999 18.3334H17.4999C17.6645 18.3326 17.825 18.2831 17.9615 18.1911C18.0979 18.0992 18.2041 17.9689 18.2666 17.8167C18.3304 17.665 18.3478 17.4977 18.3167 17.336C18.2856 17.1744 18.2072 17.0256 18.0916 16.9084L17.1749 15.9917ZM6.6666 12.5C6.66774 12.7791 6.69003 13.0577 6.73326 13.3334H4.50826L4.79993 13.05C4.87804 12.9726 4.94003 12.8804 4.98234 12.7789C5.02465 12.6773 5.04643 12.5684 5.04643 12.4584C5.04643 12.3484 5.02465 12.2394 4.98234 12.1379C4.94003 12.0363 4.87804 11.9442 4.79993 11.8667C4.3329 11.4048 3.96264 10.8544 3.71081 10.2477C3.45898 9.64105 3.33063 8.99025 3.33326 8.33338C3.33326 7.0073 3.86005 5.73553 4.79773 4.79784C5.73541 3.86016 7.00718 3.33338 8.33326 3.33338C9.368 3.32716 10.3787 3.64536 11.2232 4.24326C12.0677 4.84116 12.7037 5.68869 13.0416 6.66671H12.4999C10.9528 6.66671 9.4691 7.28129 8.37514 8.37526C7.28118 9.46922 6.6666 10.9529 6.6666 12.5ZM15.4499 16.6667L15.4916 16.7084H12.4999C11.536 16.7067 10.6026 16.3708 9.85853 15.758C9.11449 15.1453 8.60591 14.2935 8.41943 13.3478C8.23295 12.4022 8.3801 11.4211 8.83583 10.5717C9.29155 9.72238 10.0277 9.0573 10.9187 8.68979C11.8098 8.32229 12.8007 8.27509 13.7227 8.55623C14.6447 8.83738 15.4407 9.42948 15.975 10.2317C16.5094 11.0339 16.7492 11.9965 16.6534 12.9556C16.5577 13.9147 16.1324 14.811 15.4499 15.4917C15.2929 15.6456 15.2031 15.8552 15.1999 16.075C15.2004 16.1853 15.2227 16.2944 15.2656 16.3959C15.3085 16.4975 15.3712 16.5895 15.4499 16.6667Z" fill="black"/>
</svg>
